IKResults																																											
version=1																																											
nRows=14																																											
nColumns=44																																											
inDegrees=yes																																											
																																											
Units are S.I. units (second, meters, Newtons, ...)																																											
Angles are in degrees.																																											
																																											
endheader																																											
time	ground_spine_rot_x	ground_spine_rot_y	ground_spine_rot_z	ground_spine_tx	ground_spine_ty	ground_spine_tz	clav_prot	clav_elev	scapula_abduction	scapula_elevation	scapula_upward_rot	scapula_winging	plane_elv	shoulder_elv	axial_rot	elbow_flexion	pro_sup	clav_prot_l	clav_elev_l	pitch2	roll2	yaw2	aux7jnt_r3	aux7jnt_r1	aux7jnt_r2	aux6jnt_r3	aux6jnt_r1	aux6jnt_r2	aux5jnt_r3	aux5jnt_r1	aux5jnt_r2	aux4jnt_r3	aux4jnt_r1	aux4jnt_r2	aux3jnt_r3	aux3jnt_r1	aux3jnt_r2	pitch1	roll1	yaw1	aux1jnt_r3	aux1jnt_r1	aux1jnt_r2
1.5	2.35578157	4.8175222	1.49205002	-0.76902282	1.09621798	-0.62539647	-31.53852556	8.03268654	23.0636152	-14.7259733	41.16652232	14.63899738	-2.19561995	33.76723413	0.58442844	0	34.32	30.42326055	-1.1607173	0.03972803	0.01513723	-0.02941599	0.42565889	0.11881988	-0.31685743	0.50077394	0.13616606	-0.36910498	0.50077394	0.18733647	-0.36910498	0.37558045	0.18733647	-0.36910498	0.25038697	0.16999079	-0.15842872	-0.22860175	-0.00969177	-0.06444429	-7.28243739	-0.27764866	-0.40985562
1.51	2.38199678	4.87369897	1.51845989	-0.76880106	1.09630742	-0.62540276	-31.88900501	8.17448548	24.29969773	-14.76275364	42.55108753	14.61962782	-2.41579541	34.22061729	0.97491012	0	34.32	30.42326055	-1.1607173	0.04019263	0.01622961	-0.02685098	0.43063669	0.1273946	-0.28922819	0.50663015	0.14599258	-0.33691988	0.50663015	0.20085575	-0.33691988	0.37997262	0.20085575	-0.33691988	0.25331508	0.1822583	-0.1446141	-0.22841551	-0.00976497	-0.06801772	-7.27650456	-0.27974576	-0.43258205
1.52	2.41569698	4.99931758	1.54366113	-0.76857124	1.0963699	-0.62558968	-32.09520906	8.47672845	24.61116577	-14.5660246	43.0630891	14.59044926	-0.47811365	34.97938268	-1.13922985	0	34.32	30.42326055	-1.1607173	0.04068506	0.01690131	-0.03026766	0.43591277	0.13266712	-0.32603124	0.5128373	0.15203482	-0.37979149	0.5128373	0.20916862	-0.37979149	0.38462797	0.20916862	-0.37979149	0.25641865	0.18980148	-0.16301562	-0.22807299	-0.01036108	-0.06645093	-7.26559313	-0.29682309	-0.42261756
1.53	2.47039439	5.12229292	1.55713558	-0.76835016	1.09644718	-0.62586899	-32.40333446	8.80912075	24.67737386	-14.33324166	43.52748941	14.6251284	1.41493757	35.83157066	-3.01365422	0	34.32	30.42326055	-1.1607173	0.04281941	0.01763832	-0.03319521	0.4587809	0.13845226	-0.35756571	0.53974091	0.15866452	-0.41652577	0.53974091	0.21828973	-0.41652577	0.40480568	0.21828973	-0.41652577	0.26987046	0.19807805	-0.17878286	-0.22884124	-0.01238021	-0.06538949	-7.29006674	-0.35466701	-0.41586693
1.54	2.48670123	5.2749666	1.58445926	-0.76806695	1.09652002	-0.6259944	-32.72247311	9.00077221	25.33913123	-14.25293978	44.42235826	14.65441086	1.8850876	36.50693503	-3.03703455	0	34.32	30.42326055	-1.1607173	0.04284429	0.01875354	-0.03424252	0.45904746	0.14720623	-0.36884695	0.54005451	0.16869645	-0.42966721	0.54005451	0.2320916	-0.42966721	0.40504088	0.2320916	-0.42966721	0.27002726	0.21060199	-0.18442348	-0.2280649	-0.01190596	-0.06647714	-7.26533517	-0.34108056	-0.42278422
1.55	2.52357911	5.31146903	1.58305001	-0.76793092	1.09657218	-0.62600402	-32.95712715	9.27019725	26.08364374	-14.10112415	45.25678765	14.62032016	2.64404819	37.12684592	-5.31403737	0	34.32	30.42326055	-1.1607173	0.0445149	0.01855542	-0.03286163	0.47694687	0.14565106	-0.35397255	0.56111259	0.16691425	-0.41234012	0.56111259	0.22963966	-0.41234012	0.42083444	0.22963966	-0.41234012	0.28055629	0.20837708	-0.17698627	-0.22794864	-0.01215075	-0.06799514	-7.26163161	-0.34809333	-0.43243845
1.56	2.55953185	5.44998924	1.58906969	-0.76768866	1.09662086	-0.62620364	-33.37927885	9.55953557	26.05491042	-13.89093627	45.78156569	14.73670697	4.37755845	37.74734993	-7.00463451	0	34.32	30.42326055	-1.1607173	0.04639532	0.01875155	-0.03397478	0.49709436	0.1471906	-0.36596295	0.58481547	0.16867854	-0.42630765	0.58481547	0.23206696	-0.42630765	0.4386116	0.23206696	-0.42630765	0.29240773	0.21057963	-0.18298147	-0.22811895	-0.0122201	-0.06879802	-7.26705697	-0.35008017	-0.43754464
1.57	2.54834293	5.52019558	1.60517361	-0.7673971	1.09667518	-0.62602198	-33.57708113	9.70487834	26.76763898	-13.8222307	46.52908114	14.73451786	4.70046061	38.46502186	-8.24270894	0	34.32	30.42326055	-1.1607173	0.04721052	0.02081653	-0.03511822	0.50582863	0.1633997	-0.37827961	0.59509104	0.18725396	-0.44065524	0.59509104	0.25762291	-0.44065524	0.44631828	0.25762291	-0.44065524	0.29754552	0.23376933	-0.1891398	-0.22755531	-0.01278928	-0.06832425	-7.24910144	-0.36638601	-0.43453154
1.58	2.57138105	5.6435903	1.61183261	-0.76715038	1.09674074	-0.62619054	-33.85808761	9.93899502	27.14875828	-13.66276268	47.14543558	14.77472466	5.39303873	39.17095605	-9.39775992	0	34.32	30.42326055	-1.1607173	0.04823806	0.02184938	-0.03408956	0.51683802	0.17150703	-0.36719924	0.60804324	0.19654486	-0.4277478	0.60804324	0.27040528	-0.4277478	0.45603243	0.27040528	-0.4277478	0.30402162	0.24536816	-0.18359962	-0.22726911	-0.01267365	-0.07149506	-7.23998436	-0.36307336	-0.4546974
1.59	2.58121286	5.70402105	1.63627478	-0.76676784	1.09682667	-0.62609931	-34.41509465	9.94606847	29.25867557	-13.74256337	49.28161287	14.92748806	2.07841812	39.17885468	-5.36364957	0	34.32	30.42326055	-1.1607173	0.04873831	0.02250213	-0.03458374	0.52219784	0.17663079	-0.37252245	0.61434889	0.20241662	-0.43394876	0.61434889	0.27848361	-0.43394876	0.46076167	0.27848361	-0.43394876	0.30717444	0.25269852	-0.18626122	-0.22681921	-0.01251044	-0.07176091	-7.225652	-0.3583976	-0.45638817
1.6	2.6004798	5.84876396	1.63107265	-0.76656811	1.09682648	-0.62625421	-34.7583084	10.08188394	29.29892107	-13.63038487	49.72979364	15.06048195	3.18733826	39.89781313	-7.68424326	0	34.32	30.42326055	-1.1607173	0.05042587	0.02368554	-0.03324299	0.54027895	0.18591999	-0.35808035	0.63562073	0.21306192	-0.41712527	0.63562073	0.29312936	-0.41712527	0.47671555	0.29312936	-0.41712527	0.31781037	0.2659882	-0.17904018	-0.22691357	-0.01319126	-0.07557554	-7.22865802	-0.37790185	-0.48064864
1.61	2.61175182	5.93863187	1.65515561	-0.76614227	1.09687948	-0.62622314	-35.21971307	10.16189149	30.53307039	-13.57688646	51.11645943	15.2283771	1.578873	40.15584662	-5.73322761	0	34.32	30.42326055	-1.1607173	0.05079609	0.02335135	-0.03271949	0.54424554	0.18329675	-0.35244145	0.6402873	0.21005573	-0.41055656	0.6402873	0.28899346	-0.41055656	0.48021548	0.28899346	-0.41055656	0.32014365	0.26223525	-0.17622072	-0.22643088	-0.01200032	-0.0769894	-7.2132813	-0.34378385	-0.48964055
1.62	2.61467295	6.02952396	1.650523	-0.76588497	1.09686874	-0.62618138	-35.47188199	10.40916108	30.13929461	-13.36385612	51.15064791	15.29871061	3.60101329	40.88329307	-8.14251291	0	34.32	30.42326055	-1.1607173	0.05259148	0.02414987	-0.03223169	0.56348199	0.18956473	-0.347187	0.66291836	0.21723876	-0.40443569	0.66291836	0.29887582	-0.40443569	0.49718877	0.29887582	-0.40443569	0.33145918	0.27120259	-0.1735935	-0.22678373	-0.01202308	-0.07893302	-7.22452183	-0.34443586	-0.50200168
1.63	2.62460232	6.15410554	1.69087377	-0.76539137	1.09695563	-0.62632741	-35.73595756	10.55144489	30.44954482	-13.24127099	51.66738866	15.38524254	3.86043109	41.34250729	-8.13319226	0	34.32	30.42326055	-1.1607173	0.05193639	0.02562126	-0.03306949	0.5564631	0.20111448	-0.35621148	0.65466087	0.23047462	-0.41494823	0.65466087	0.31708564	-0.41494823	0.49099565	0.31708564	-0.41494823	0.32733043	0.28772634	-0.17810574	-0.22682425	-0.0113305	-0.07971601	-7.2258127	-0.32459479	-0.50698136
